<?xml version="1.0" standalone="no"?>
<!DOCTYPE svg PUBLIC "-//W3C//DTD SVG 20010904//EN"
 "http://www.w3.org/TR/2001/REC-SVG-20010904/DTD/svg10.dtd">
<svg version="1.0" xmlns="http://www.w3.org/2000/svg"
 width="186.000000pt" height="91.000000pt" viewBox="0 0 186.000000 91.000000"
 preserveAspectRatio="xMidYMid meet">

<g transform="translate(0.000000,91.000000) scale(0.100000,-0.100000)"
fill="#000000" stroke="none">
<path d="M697 703 c-25 -29 -94 -164 -112 -223 -25 -81 -73 -113 -61 -42 12
75 -56 114 -92 53 -9 -17 -27 -35 -39 -40 -24 -11 -63 -78 -63 -109 0 -24 41
-62 67 -62 21 0 53 26 88 71 12 15 31 29 42 33 22 7 22 6 16 -78 -6 -93 2
-116 42 -116 22 0 80 55 116 110 17 25 17 24 9 -20 -9 -46 7 -90 31 -90 16 0
56 46 114 128 38 54 56 72 74 72 14 0 21 -5 18 -12 -3 -7 -13 -32 -22 -55 -38
-95 10 -123 81 -47 41 43 43 44 54 25 16 -32 46 -25 76 17 16 20 31 40 34 44
3 4 4 -10 2 -31 -4 -43 11 -81 33 -81 7 0 27 16 43 36 27 32 30 34 35 15 8
-30 32 -26 55 10 l19 31 19 -31 c24 -40 42 -39 98 4 l46 35 0 -35 c0 -28 4
-35 20 -35 12 0 26 12 36 31 l16 31 19 -31 c10 -17 27 -31 37 -31 25 0 94 50
121 88 35 50 24 48 -33 -7 -30 -28 -59 -51 -65 -51 -12 0 -41 40 -41 56 0 6
14 17 31 25 48 19 89 58 89 84 0 63 -78 25 -140 -68 -32 -48 -40 -55 -34 -32
3 17 37 75 74 130 80 119 87 137 66 170 -19 29 -47 32 -69 7 -23 -26 -71 -135
-96 -220 -17 -57 -31 -80 -63 -112 -44 -42 -59 -48 -75 -27 -26 33 -22 46 22
71 59 35 88 72 74 97 -5 10 -16 19 -24 19 -22 0 -93 -68 -122 -117 -13 -23
-26 -43 -28 -43 -9 0 19 78 35 95 37 42 120 180 120 200 0 30 -33 58 -59 50
-35 -11 -86 -114 -121 -246 -17 -65 -71 -159 -91 -159 -12 0 -3 73 12 102 12
23 11 58 -2 58 -6 0 -19 -4 -29 -10 -15 -8 -20 -6 -25 10 -10 30 -49 25 -77
-9 -12 -16 -33 -47 -46 -68 -31 -52 -89 -119 -96 -112 -3 3 5 34 19 68 14 34
23 66 20 71 -4 6 -18 10 -32 10 -21 0 -24 3 -19 24 3 12 3 26 0 29 -12 12 -44
-14 -44 -36 0 -30 -143 -209 -148 -185 -4 22 20 108 60 211 l29 77 39 0 c21 0
42 5 45 10 4 6 -8 10 -29 10 -20 0 -36 2 -36 5 0 12 40 84 50 90 5 3 10 13 10
21 0 11 -8 14 -27 12 -22 -2 -35 -16 -63 -65 -29 -51 -40 -62 -69 -68 -18 -3
-35 -4 -37 -2 -2 2 5 24 16 48 22 50 26 99 8 117 -17 17 -32 15 -51 -5z m-2
-130 c-26 -51 -49 -92 -52 -90 -7 7 49 151 70 181 40 57 30 4 -18 -91z m775
79 c0 -23 -92 -180 -97 -166 -5 14 31 109 57 152 22 35 40 42 40 14z m240 8
c0 -14 -54 -118 -80 -155 l-22 -30 6 33 c9 51 65 162 82 162 7 0 14 -5 14 -10z
m-930 -144 c0 -46 -135 -278 -169 -291 -28 -11 -33 11 -21 84 9 57 21 84 61
143 46 69 51 73 89 76 30 2 40 -1 40 -12z m-285 -26 c3 -5 1 -28 -5 -50 -8
-30 -16 -40 -32 -40 -18 0 -20 4 -15 36 9 51 36 80 52 54z m969 -37 c-20 -26
-64 -61 -64 -49 0 3 16 24 36 46 40 44 60 46 28 3z m236 -2 c-21 -31 -60 -59
-60 -44 0 10 73 84 78 78 2 -2 -6 -18 -18 -34z m-534 -26 c5 -19 -2 -35 -27
-67 -29 -36 -34 -39 -37 -22 -4 25 33 114 47 114 6 0 13 -11 17 -25z m-723
-31 c25 -9 21 -32 -12 -65 -31 -31 -46 -36 -56 -18 -10 16 25 101 39 95 6 -4
19 -9 29 -12z"/>
<path d="M385 649 c-11 -4 -59 -8 -106 -8 -70 -1 -89 -4 -102 -19 -20 -22 -24
-53 -5 -34 7 7 40 12 77 12 l65 0 -65 -67 c-116 -120 -205 -244 -194 -271 5
-13 8 -13 23 2 25 21 48 20 89 -5 40 -25 71 -20 121 18 42 32 36 38 -14 17
-36 -15 -42 -15 -91 1 l-52 18 40 58 c21 32 43 61 49 64 6 4 8 10 5 15 -3 4
38 49 91 99 92 88 112 117 69 100z"/>
</g>
</svg>
